<?xml version="1.0" standalone="no"?><!DOCTYPE svg PUBLIC "-//W3C//DTD SVG 1.1//EN" "http://www.w3.org/Graphics/SVG/1.1/DTD/svg11.dtd"><svg t="1561458083992" class="icon" viewBox="0 0 1024 1024" version="1.1" xmlns="http://www.w3.org/2000/svg" p-id="3065" width="32" height="32" xmlns:xlink="http://www.w3.org/1999/xlink"><defs><style type="text/css"></style></defs><path d="M317.076142 896.649746a194.923858 64.974619 0 1 0 389.847716 0 194.923858 64.974619 0 1 0-389.847716 0Z" fill="#6E7477" p-id="3066"></path><path d="M421.035533 894.050761a93.563452 38.984772 0 1 0 187.126904 0 93.563452 38.984772 0 1 0-187.126904 0Z" fill="#3A4657" p-id="3067"></path><path d="M512 883.654822s-20.791878-98.761421-192.324873-257.299492C223.51269 537.989848 187.126904 454.822335 187.126904 366.456853 187.126904 179.329949 332.670051 25.989848 512 25.989848S836.873096 179.329949 836.873096 366.456853c0 88.365482-36.385787 171.532995-132.548223 259.898477-171.532995 158.538071-192.324873 257.299492-192.324873 257.299492z" fill="#FF2323" p-id="3068"></path><path d="M512 896.649746h-10.395939l-2.598985-10.395939c-7.796954-25.989848-44.182741-116.954315-187.126903-249.502538C218.314721 550.984772 174.13198 465.218274 174.13198 366.456853 174.13198 171.532995 324.873096 12.994924 512 12.994924s337.86802 158.538071 337.86802 353.461929c0 96.162437-44.182741 181.928934-137.746193 270.294416-142.944162 132.548223-179.329949 226.111675-187.126903 249.502538l-2.598985 7.796954-10.395939 2.598985z m0-857.664974c-171.532995 0-311.878173 145.543147-311.878173 327.472081 0 88.365482 41.583756 168.93401 129.949239 249.502538 111.756345 103.959391 161.137056 184.527919 181.928934 231.309645 20.791878-46.781726 70.172589-127.350254 181.928934-231.309645 88.365482-80.568528 129.949239-161.137056 129.949239-249.502538 0-181.928934-140.345178-327.472081-311.878173-327.472081z" fill="#DD0000" p-id="3069"></path><path d="M444.426396 179.329949c-18.192893 44.182741-36.385787 80.568528-54.57868 109.157361l46.781726-7.796955 23.390863-46.781726 23.390863 7.796955c-31.187817 64.974619-59.77665 114.35533-80.568528 140.345177 20.791878-5.19797 41.583756-10.395939 62.375634-20.791878v23.390863c-31.187817 12.994924-62.375635 20.791878-90.964467 25.989848l-7.796954-23.390863c5.19797-2.598985 7.796954-5.19797 10.395939-7.796954 12.994924-15.593909 28.588832-38.984772 49.380711-75.370559-20.791878 2.598985-38.984772 7.796954-59.77665 10.395939l-5.19797-23.390863c0-2.598985 5.19797-5.19797 7.796955-10.395939 20.791878-33.786802 36.385787-70.172589 51.979695-111.756345l23.390863 10.395939z m33.786802 278.091371c-33.786802 12.994924-72.771574 23.390863-114.35533 31.187817l-2.598985-28.588832c44.182741-7.796954 83.167513-18.192893 116.954315-28.588833v25.989848z m90.964467-285.888325c-2.598985 10.395939-7.796954 23.390863-10.395939 31.187817h103.959391v20.791878c-15.593909 28.588832-33.786802 54.57868-57.177665 77.969544 25.989848 18.192893 54.57868 33.786802 85.766497 46.781725l-10.395939 25.989848c-33.786802-15.593909-64.974619-33.786802-90.964467-54.57868-31.187817 25.989848-64.974619 44.182741-103.959391 57.177665l-12.994924-23.390863c36.385787-10.395939 70.172589-28.588832 98.761422-51.979695-15.593909-12.994924-31.187817-28.588832-44.182741-44.182742-7.796954 10.395939-18.192893 23.390863-31.187818 33.786802l-15.593908-20.791878c31.187817-28.588832 51.979695-62.375635 64.974619-103.959391l23.390863 5.19797z m98.761421 311.878173l-12.994924 20.791878c-51.979695-23.390863-106.558376-41.583756-161.137055-54.578681l15.593908-20.791878c57.177665 12.994924 111.756345 31.187817 158.538071 54.578681z m-15.593908-77.969544l-12.994924 20.791879c-33.786802-18.192893-64.974619-31.187817-101.360406-41.583757l12.994924-20.791878c38.984772 12.994924 72.771574 25.989848 101.360406 41.583756z m-18.192894-174.131979h-85.766497c-2.598985 5.19797-5.19797 7.796954-7.796955 12.994924 12.994924 15.593909 31.187817 31.187817 46.781726 46.781725 18.192893-18.192893 33.786802-38.984772 46.781726-59.776649z" fill="#FFFFFF" p-id="3070"></path></svg>