<?xml version="1.0" standalone="no"?><!DOCTYPE svg PUBLIC "-//W3C//DTD SVG 1.1//EN" "http://www.w3.org/Graphics/SVG/1.1/DTD/svg11.dtd"><svg t="1561871851554" class="icon" viewBox="0 0 1024 1024" version="1.1" xmlns="http://www.w3.org/2000/svg" p-id="7587" width="32" height="32" xmlns:xlink="http://www.w3.org/1999/xlink"><defs><style type="text/css"></style></defs><path d="M600.576 456.704h-215.04c-54.272 0.512-89.088 35.84-89.088 90.624 0 115.712-0.512 231.424-0.512 347.136v18.432H164.864c-0.512-5.632-1.024-10.752-1.024-15.872V495.104c0-95.744 71.168-168.96 166.912-170.496 82.432-1.024 165.376-0.512 247.808-0.512h21.504c-4.608-22.016-8.704-41.984-12.8-61.952-4.096-19.968-8.704-40.448-12.8-60.416-1.024-4.096-2.048-8.192-1.024-12.288 1.024-8.192 8.192-10.752 15.872-6.656 2.048 1.024 4.096 2.56 6.144 4.096 96.256 65.024 193.024 129.536 289.28 194.56 3.584 2.56 7.168 5.632 11.776 8.704-5.632 4.096-10.24 7.68-15.36 10.752-94.208 62.976-187.904 126.464-282.112 189.44-3.584 2.048-6.656 5.12-10.24 6.656-8.192 4.096-15.872 0-15.36-9.216 0-6.144 2.048-12.8 3.584-18.944 7.168-36.352 14.848-73.216 23.552-112.128z" p-id="7588" fill="#ffffff"></path></svg>